{
	"asset":{
		"generator":"Khronos glTF Blender I/O v4.1.62",
		"version":"2.0"
	},
	"extensionsUsed":[
		"KHR_materials_specular",
		"KHR_materials_ior",
		"KHR_materials_emissive_strength"
	],
	"scene":0,
	"scenes":[
		{
			"name":"Scene",
			"nodes":[
				0
			]
		}
	],
	"nodes":[
		{
			"mesh":0,
			"name":"OctahedronHybrid"
		}
	],
	"materials":[
		{
			"doubleSided":true,
			"extensions":{
				"KHR_materials_specular":{
					"specularFactor":0.23450136184692383
				},
				"KHR_materials_ior":{
					"ior":1.4500000476837158
				}
			},
			"name":"Material",
			"pbrMetallicRoughness":{
				"baseColorFactor":[
					0.07818732410669327,
					0.07818734645843506,
					0.07818741351366043,
					1
				],
				"metallicFactor":0,
				"roughnessFactor":0.5
			}
		},
		{
			"doubleSided":true,
			"emissiveFactor":[
				0.1581592082977295,
				0.14765959978103638,
				1
			],
			"extensions":{
				"KHR_materials_emissive_strength":{
					"emissiveStrength":2
				}
			},
			"name":"NeonBlue",
			"pbrMetallicRoughness":{
				"baseColorFactor":[
					0,
					0,
					0,
					1
				]
			}
		},
		{
			"doubleSided":true,
			"emissiveFactor":[
				0.4365620017051697,
				1,
				0.2724708020687103
			],
			"extensions":{
				"KHR_materials_emissive_strength":{
					"emissiveStrength":2
				}
			},
			"name":"NeonGreen",
			"pbrMetallicRoughness":{
				"baseColorFactor":[
					0,
					0,
					0,
					1
				]
			}
		},
		{
			"doubleSided":true,
			"emissiveFactor":[
				1,
				0.7536332607269287,
				0.1868269443511963
			],
			"extensions":{
				"KHR_materials_emissive_strength":{
					"emissiveStrength":2
				}
			},
			"name":"NeonYellow",
			"pbrMetallicRoughness":{
				"baseColorFactor":[
					0,
					0,
					0,
					1
				]
			}
		},
		{
			"doubleSided":true,
			"emissiveFactor":[
				0.3227241039276123,
				0.0702987089753151,
				1
			],
			"extensions":{
				"KHR_materials_emissive_strength":{
					"emissiveStrength":2
				}
			},
			"name":"NeonPurple",
			"pbrMetallicRoughness":{
				"baseColorFactor":[
					0,
					0,
					0,
					1
				]
			}
		}
	],
	"meshes":[
		{
			"name":"Circle.034",
			"primitives":[
				{
					"attributes":{
						"POSITION":0,
						"NORMAL":1,
						"TEXCOORD_0":2
					},
					"indices":3,
					"material":0
				},
				{
					"attributes":{
						"POSITION":4,
						"NORMAL":5,
						"TEXCOORD_0":6
					},
					"indices":7,
					"material":1
				},
				{
					"attributes":{
						"POSITION":8,
						"NORMAL":9,
						"TEXCOORD_0":10
					},
					"indices":11,
					"material":2
				},
				{
					"attributes":{
						"POSITION":12,
						"NORMAL":13,
						"TEXCOORD_0":14
					},
					"indices":15,
					"material":3
				},
				{
					"attributes":{
						"POSITION":16,
						"NORMAL":17,
						"TEXCOORD_0":18
					},
					"indices":19,
					"material":4
				}
			]
		}
	],
	"accessors":[
		{
			"bufferView":0,
			"componentType":5126,
			"count":29,
			"max":[
				1.5,
				0.8164966106414795,
				0
			],
			"min":[
				0.5,
				0,
				-1.1547046899795532
			],
			"type":"VEC3"
		},
		{
			"bufferView":1,
			"componentType":5126,
			"count":29,
			"type":"VEC3"
		},
		{
			"bufferView":2,
			"componentType":5126,
			"count":29,
			"type":"VEC2"
		},
		{
			"bufferView":3,
			"componentType":5123,
			"count":39,
			"type":"SCALAR"
		},
		{
			"bufferView":4,
			"componentType":5126,
			"count":144,
			"max":[
				1.4940191507339478,
				0.7812547087669373,
				-0.049839675426483154
			],
			"min":[
				0.5059808492660522,
				0.03524157404899597,
				-1.1477980613708496
			],
			"type":"VEC3"
		},
		{
			"bufferView":5,
			"componentType":5126,
			"count":144,
			"type":"VEC3"
		},
		{
			"bufferView":6,
			"componentType":5126,
			"count":144,
			"type":"VEC2"
		},
		{
			"bufferView":7,
			"componentType":5123,
			"count":288,
			"type":"SCALAR"
		},
		{
			"bufferView":8,
			"componentType":5126,
			"count":36,
			"max":[
				1.4196566343307495,
				0.7812550067901611,
				-0.00690663605928421
			],
			"min":[
				0.5803433656692505,
				0.08746679872274399,
				-0.27321702241897583
			],
			"type":"VEC3"
		},
		{
			"bufferView":9,
			"componentType":5126,
			"count":36,
			"type":"VEC3"
		},
		{
			"bufferView":10,
			"componentType":5126,
			"count":36,
			"type":"VEC2"
		},
		{
			"bufferView":11,
			"componentType":5123,
			"count":72,
			"type":"SCALAR"
		},
		{
			"bufferView":12,
			"componentType":5126,
			"count":36,
			"max":[
				1.4196566343307495,
				0,
				-0.09277258068323135
			],
			"min":[
				0.5803434252738953,
				-0.025474969297647476,
				-0.8196390867233276
			],
			"type":"VEC3"
		},
		{
			"bufferView":13,
			"componentType":5126,
			"count":36,
			"type":"VEC3"
		},
		{
			"bufferView":14,
			"componentType":5126,
			"count":36,
			"type":"VEC2"
		},
		{
			"bufferView":15,
			"componentType":5123,
			"count":72,
			"type":"SCALAR"
		},
		{
			"bufferView":16,
			"componentType":5126,
			"count":72,
			"max":[
				1.4940191507339478,
				0.8419715762138367,
				-0.3350656032562256
			],
			"min":[
				0.5803434252738953,
				0.08746683597564697,
				-1.1048649549484253
			],
			"type":"VEC3"
		},
		{
			"bufferView":17,
			"componentType":5126,
			"count":72,
			"type":"VEC3"
		},
		{
			"bufferView":18,
			"componentType":5126,
			"count":72,
			"type":"VEC2"
		},
		{
			"bufferView":19,
			"componentType":5123,
			"count":144,
			"type":"SCALAR"
		}
	],
	"bufferViews":[
		{
			"buffer":0,
			"byteLength":348,
			"byteOffset":0,
			"target":34962
		},
		{
			"buffer":0,
			"byteLength":348,
			"byteOffset":348,
			"target":34962
		},
		{
			"buffer":0,
			"byteLength":232,
			"byteOffset":696,
			"target":34962
		},
		{
			"buffer":0,
			"byteLength":78,
			"byteOffset":928,
			"target":34963
		},
		{
			"buffer":0,
			"byteLength":1728,
			"byteOffset":1008,
			"target":34962
		},
		{
			"buffer":0,
			"byteLength":1728,
			"byteOffset":2736,
			"target":34962
		},
		{
			"buffer":0,
			"byteLength":1152,
			"byteOffset":4464,
			"target":34962
		},
		{
			"buffer":0,
			"byteLength":576,
			"byteOffset":5616,
			"target":34963
		},
		{
			"buffer":0,
			"byteLength":432,
			"byteOffset":6192,
			"target":34962
		},
		{
			"buffer":0,
			"byteLength":432,
			"byteOffset":6624,
			"target":34962
		},
		{
			"buffer":0,
			"byteLength":288,
			"byteOffset":7056,
			"target":34962
		},
		{
			"buffer":0,
			"byteLength":144,
			"byteOffset":7344,
			"target":34963
		},
		{
			"buffer":0,
			"byteLength":432,
			"byteOffset":7488,
			"target":34962
		},
		{
			"buffer":0,
			"byteLength":432,
			"byteOffset":7920,
			"target":34962
		},
		{
			"buffer":0,
			"byteLength":288,
			"byteOffset":8352,
			"target":34962
		},
		{
			"buffer":0,
			"byteLength":144,
			"byteOffset":8640,
			"target":34963
		},
		{
			"buffer":0,
			"byteLength":864,
			"byteOffset":8784,
			"target":34962
		},
		{
			"buffer":0,
			"byteLength":864,
			"byteOffset":9648,
			"target":34962
		},
		{
			"buffer":0,
			"byteLength":576,
			"byteOffset":10512,
			"target":34962
		},
		{
			"buffer":0,
			"byteLength":288,
			"byteOffset":11088,
			"target":34963
		}
	],
	"buffers":[
		{
			"byteLength":11376,
			"uri":"octahedron.bin"
		}
	]
}
