{
  "asset": {
    "version": "2.0",
    "generator": "3dpea GLTFExporter"
  },
  "scenes": [
    {
      "name": "AuxScene",
      "nodes": [
        6
      ]
    }
  ],
  "scene": 0,
  "nodes": [
    {
      "name": "Circle027",
      "mesh": 0
    },
    {
      "name": "Circle027_1",
      "mesh": 1
    },
    {
      "name": "Circle027_2",
      "mesh": 2
    },
    {
      "name": "Circle027_3",
      "mesh": 3
    },
    {
      "name": "Circle027_4",
      "mesh": 4
    },
    {
      "name": "Tetrahedron",
      "extras": {
        "name": "Tetrahedron"
      },
      "children": [
        0,
        1,
        2,
        3,
        4
      ]
    },
    {
      "name": "tetrahedron",
      "children": [
        5
      ]
    }
  ],
  "bufferViews": [
    {
      "buffer": 0,
      "byteOffset": 0,
      "byteLength": 480,
      "target": 34962,
      "byteStride": 12
    },
    {
      "buffer": 0,
      "byteOffset": 480,
      "byteLength": 480,
      "target": 34962,
      "byteStride": 12
    },
    {
      "buffer": 0,
      "byteOffset": 960,
      "byteLength": 320,
      "target": 34962,
      "byteStride": 8
    },
    {
      "buffer": 0,
      "byteOffset": 1280,
      "byteLength": 360,
      "target": 34963
    },
    {
      "buffer": 0,
      "byteOffset": 1640,
      "byteLength": 312,
      "target": 34962,
      "byteStride": 12
    },
    {
      "buffer": 0,
      "byteOffset": 1952,
      "byteLength": 312,
      "target": 34962,
      "byteStride": 12
    },
    {
      "buffer": 0,
      "byteOffset": 2264,
      "byteLength": 208,
      "target": 34962,
      "byteStride": 8
    },
    {
      "buffer": 0,
      "byteOffset": 2472,
      "byteLength": 192,
      "target": 34963
    },
    {
      "buffer": 0,
      "byteOffset": 2664,
      "byteLength": 360,
      "target": 34962,
      "byteStride": 12
    },
    {
      "buffer": 0,
      "byteOffset": 3024,
      "byteLength": 360,
      "target": 34962,
      "byteStride": 12
    },
    {
      "buffer": 0,
      "byteOffset": 3384,
      "byteLength": 240,
      "target": 34962,
      "byteStride": 8
    },
    {
      "buffer": 0,
      "byteOffset": 3624,
      "byteLength": 216,
      "target": 34963
    },
    {
      "buffer": 0,
      "byteOffset": 3840,
      "byteLength": 360,
      "target": 34962,
      "byteStride": 12
    },
    {
      "buffer": 0,
      "byteOffset": 4200,
      "byteLength": 360,
      "target": 34962,
      "byteStride": 12
    },
    {
      "buffer": 0,
      "byteOffset": 4560,
      "byteLength": 240,
      "target": 34962,
      "byteStride": 8
    },
    {
      "buffer": 0,
      "byteOffset": 4800,
      "byteLength": 216,
      "target": 34963
    },
    {
      "buffer": 0,
      "byteOffset": 5016,
      "byteLength": 360,
      "target": 34962,
      "byteStride": 12
    },
    {
      "buffer": 0,
      "byteOffset": 5376,
      "byteLength": 360,
      "target": 34962,
      "byteStride": 12
    },
    {
      "buffer": 0,
      "byteOffset": 5736,
      "byteLength": 240,
      "target": 34962,
      "byteStride": 8
    },
    {
      "buffer": 0,
      "byteOffset": 5976,
      "byteLength": 216,
      "target": 34963
    }
  ],
  "buffers": [
    {
      "byteLength": 6192,
      "uri": "data:application/octet-stream;base64,"
    }
  ],
  "accessors": [
    {
      "bufferView": 0,
      "componentType": 5126,
      "count": 40,
      "max": [
        0.49998608231544495,
        0.814063310623169,
        0.28866153955459595
      ],
      "min": [
        -0.49998602271080017,
        -0.007619206327944994,
        -0.577333927154541
      ],
      "type": "VEC3"
    },
    {
      "bufferView": 1,
      "componentType": 5126,
      "count": 40,
      "max": [
        0.8156676292419434,
        1,
        0.4728967249393463
      ],
      "min": [
        -0.8156675696372986,
        -0.334911048412323,
        -0.9422497153282166
      ],
      "type": "VEC3"
    },
    {
      "bufferView": 2,
      "componentType": 5126,
      "count": 40,
      "max": [
        0,
        1
      ],
      "min": [
        0,
        1
      ],
      "type": "VEC2"
    },
    {
      "bufferView": 3,
      "componentType": 5125,
      "count": 90,
      "max": [
        39
      ],
      "min": [
        0
      ],
      "type": "SCALAR"
    },
    {
      "bufferView": 4,
      "componentType": 5126,
      "count": 26,
      "max": [
        -0.03335881233215332,
        0.7139273285865784,
        0.21159964799880981
      ],
      "min": [
        -0.45394080877304077,
        0.05441349744796753,
        -0.49293971061706543
      ],
      "type": "VEC3"
    },
    {
      "bufferView": 5,
      "componentType": 5126,
      "count": 26,
      "max": [
        0.8156676292419434,
        0.9422252178192139,
        0.8346966505050659
      ],
      "min": [
        -0.5776205062866211,
        -0.9422252774238586,
        -0.8346965909004211
      ],
      "type": "VEC3"
    },
    {
      "bufferView": 6,
      "componentType": 5126,
      "count": 26,
      "max": [
        0,
        1
      ],
      "min": [
        0,
        1
      ],
      "type": "VEC2"
    },
    {
      "bufferView": 7,
      "componentType": 5125,
      "count": 48,
      "max": [
        25
      ],
      "min": [
        0
      ],
      "type": "SCALAR"
    },
    {
      "bufferView": 8,
      "componentType": 5126,
      "count": 30,
      "max": [
        0.45393654704093933,
        0.7139273285865784,
        0.21159964799880981
      ],
      "min": [
        0.03335454687476158,
        0.054413486272096634,
        -0.49293971061706543
      ],
      "type": "VEC3"
    },
    {
      "bufferView": 9,
      "componentType": 5126,
      "count": 30,
      "max": [
        0.5776205062866211,
        0.9422253966331482,
        0.8346965909004211
      ],
      "min": [
        -0.8156675696372986,
        -0.9422252774238586,
        -0.8346965909004211
      ],
      "type": "VEC3"
    },
    {
      "bufferView": 10,
      "componentType": 5126,
      "count": 30,
      "max": [
        0,
        1
      ],
      "min": [
        0,
        1
      ],
      "type": "VEC2"
    },
    {
      "bufferView": 11,
      "componentType": 5125,
      "count": 54,
      "max": [
        29
      ],
      "min": [
        0
      ],
      "type": "SCALAR"
    },
    {
      "bufferView": 12,
      "componentType": 5126,
      "count": 30,
      "max": [
        0.3999888002872467,
        -0.0000062640756368637085,
        0.23092913627624512
      ],
      "min": [
        -0.3999888002872467,
        -0.025397727265954018,
        -0.46186715364456177
      ],
      "type": "VEC3"
    },
    {
      "bufferView": 13,
      "componentType": 5126,
      "count": 30,
      "max": [
        0.866096556186676,
        1,
        1
      ],
      "min": [
        -0.866096556186676,
        0,
        -1
      ],
      "type": "VEC3"
    },
    {
      "bufferView": 14,
      "componentType": 5126,
      "count": 30,
      "max": [
        0,
        1
      ],
      "min": [
        0,
        1
      ],
      "type": "VEC2"
    },
    {
      "bufferView": 15,
      "componentType": 5125,
      "count": 54,
      "max": [
        29
      ],
      "min": [
        0
      ],
      "type": "SCALAR"
    },
    {
      "bufferView": 16,
      "componentType": 5126,
      "count": 30,
      "max": [
        0.39985600113868713,
        0.7139330506324768,
        0.2933211326599121
      ],
      "min": [
        -0.39985600113868713,
        0.05441349744796753,
        0.03851450979709625
      ],
      "type": "VEC3"
    },
    {
      "bufferView": 17,
      "componentType": 5126,
      "count": 30,
      "max": [
        0.8658864498138428,
        0.9422497749328613,
        0.3349109888076782
      ],
      "min": [
        -0.8658863306045532,
        -0.9422497153282166,
        -0.9422497153282166
      ],
      "type": "VEC3"
    },
    {
      "bufferView": 18,
      "componentType": 5126,
      "count": 30,
      "max": [
        0,
        1
      ],
      "min": [
        0,
        1
      ],
      "type": "VEC2"
    },
    {
      "bufferView": 19,
      "componentType": 5125,
      "count": 54,
      "max": [
        29
      ],
      "min": [
        0
      ],
      "type": "SCALAR"
    }
  ],
  "materials": [
    {
      "pbrMetallicRoughness": {
        "baseColorFactor": [
          0.0781874217970207,
          0.0781874217970207,
          0.0781874217970207,
          1
        ],
        "metallicFactor": 0,
        "roughnessFactor": 0.5
      },
      "doubleSided": true,
      "name": "Material"
    },
    {
      "pbrMetallicRoughness": {
        "baseColorFactor": [
          0,
          0,
          0,
          1
        ],
        "metallicFactor": 1,
        "roughnessFactor": 1
      },
      "emissiveFactor": [
        0.9581592082977295,
        0.14765959978103638,
        1
      ],
      "doubleSided": true,
      "name": "NeonFucsia"
    },
    {
      "pbrMetallicRoughness": {
        "baseColorFactor": [
          0,
          0,
          0,
          1
        ],
        "metallicFactor": 1,
        "roughnessFactor": 1
      },
      "emissiveFactor": [
        0.3227241039276123,
        0.0702987089753151,
        1
      ],
      "doubleSided": true,
      "name": "NeonPurple"
    },
    {
      "pbrMetallicRoughness": {
        "baseColorFactor": [
          0,
          0,
          0,
          1
        ],
        "metallicFactor": 1,
        "roughnessFactor": 1
      },
      "emissiveFactor": [
        1,
        0.7536332607269287,
        0.1868269443511963
      ],
      "doubleSided": true,
      "name": "NeonYellow"
    },
    {
      "pbrMetallicRoughness": {
        "baseColorFactor": [
          0,
          0,
          0,
          1
        ],
        "metallicFactor": 1,
        "roughnessFactor": 1
      },
      "emissiveFactor": [
        0.4365620017051697,
        1,
        0.2724708020687103
      ],
      "doubleSided": true,
      "name": "NeonGreen"
    }
  ],
  "meshes": [
    {
      "primitives": [
        {
          "mode": 4,
          "attributes": {
            "POSITION": 0,
            "NORMAL": 1,
            "TEXCOORD_0": 2
          },
          "indices": 3,
          "material": 0
        }
      ]
    },
    {
      "primitives": [
        {
          "mode": 4,
          "attributes": {
            "POSITION": 4,
            "NORMAL": 5,
            "TEXCOORD_0": 6
          },
          "indices": 7,
          "material": 1
        }
      ]
    },
    {
      "primitives": [
        {
          "mode": 4,
          "attributes": {
            "POSITION": 8,
            "NORMAL": 9,
            "TEXCOORD_0": 10
          },
          "indices": 11,
          "material": 2
        }
      ]
    },
    {
      "primitives": [
        {
          "mode": 4,
          "attributes": {
            "POSITION": 12,
            "NORMAL": 13,
            "TEXCOORD_0": 14
          },
          "indices": 15,
          "material": 3
        }
      ]
    },
    {
      "primitives": [
        {
          "mode": 4,
          "attributes": {
            "POSITION": 16,
            "NORMAL": 17,
            "TEXCOORD_0": 18
          },
          "indices": 19,
          "material": 4
        }
      ]
    }
  ]
}